# xmcd
#
# Track frame offsets: 
#        150
#        22157
#        45717
#        66265
#        87707
#        111855
#        133207
#        155732
#        177532
#        200077
#        219842
#        242377
#
# Disc length: 3506 seconds
#
# Revision: 5
# Processed by: cddbd v1.5.2PL0 Copyright (c) Steve Scherf et al.
# Submitted via: ExactAudioCopy v1.0b3
#
DISCID=b70db00c
DTITLE=Brownstone - Still Climbing
DYEAR=1997
DGENRE=R&B
TTITLE0=Let's Get It Started
TTITLE1=5 Miles To Empty
TTITLE2=Love Me Like You Do
TTITLE3=In The Game Of Love
TTITLE4=Foolish Pride
TTITLE5=Kiss And Tell
TTITLE6=Baby Love
TTITLE7=Around You
TTITLE8=Revenge
TTITLE9=All I Do
TTITLE10=You Give Good Love
TTITLE11=If You Play Your Cards Right
EXTD=
EXTT0=
EXTT1=
EXTT2=
EXTT3=
EXTT4=
EXTT5=
EXTT6=
EXTT7=
EXTT8=
EXTT9=
EXTT10=
EXTT11=
PLAYORDER=
